<svg width="107" height="25" viewBox="0 0 107 25" fill="none" xmlns="http://www.w3.org/2000/svg">
<path fill-rule="evenodd" clip-rule="evenodd" d="M8.31096 20.6154C12.901 20.6154 16.6219 16.9258 16.6219 12.3746C16.6219 7.82332 12.901 4.13379 8.31096 4.13379C3.72094 4.13379 0 7.82332 0 12.3746C0 16.9258 3.72094 20.6154 8.31096 20.6154ZM8.31087 19.2763C11.4665 19.2763 14.0247 16.7397 14.0247 13.6107C14.0247 10.4817 11.4665 7.9452 8.31087 7.9452C5.15524 7.9452 2.59709 10.4817 2.59709 13.6107C2.59709 16.7397 5.15524 19.2763 8.31087 19.2763Z" fill="#535FFD"/>
<path d="M27.383 12.4144C28.103 12.5594 28.6768 12.8996 29.1043 13.4351C29.543 13.9593 29.7624 14.5784 29.7624 15.2923C29.7624 16.2851 29.4249 17.0715 28.7499 17.6516C28.0861 18.2205 27.1187 18.5049 25.8474 18.5049H20.7344V6.69194H25.7462C26.9499 6.69194 27.8724 6.95408 28.5136 7.47836C29.1661 8.00264 29.4924 8.73886 29.4924 9.68702C29.4924 10.4232 29.2955 11.0256 28.9018 11.4941C28.5193 11.9626 28.013 12.2694 27.383 12.4144ZM23.1137 11.6447H25.2568C25.8531 11.6447 26.303 11.5164 26.6068 11.2599C26.9218 10.9921 27.0793 10.6129 27.0793 10.1221C27.0793 9.63125 26.9274 9.25198 26.6237 8.98427C26.3199 8.71655 25.8531 8.58269 25.2231 8.58269H23.1137V11.6447ZM25.3749 16.5807C26.0049 16.5807 26.4887 16.4469 26.8262 16.1791C27.1637 15.9003 27.3324 15.4987 27.3324 14.9744C27.3324 14.4501 27.158 14.0486 26.8093 13.7697C26.4718 13.4797 25.9881 13.3347 25.3581 13.3347H23.1137V16.5807H25.3749Z" fill="#535FFD"/>
<path d="M40.373 9.23525V18.5049H37.9937V16.6309C37.7462 17.2556 37.3356 17.7464 36.7618 18.1034C36.1993 18.4492 35.5469 18.6221 34.8044 18.6221C33.7244 18.6221 32.8638 18.2707 32.2225 17.5679C31.5813 16.8652 31.2607 15.8835 31.2607 14.623V9.23525H33.6231V14.3553C33.6231 15.0915 33.8144 15.666 34.1969 16.0788C34.5794 16.4803 35.0969 16.6811 35.7494 16.6811C36.4356 16.6811 36.9812 16.4636 37.3862 16.0286C37.7912 15.5935 37.9937 14.9688 37.9937 14.1545V9.23525H40.373Z" fill="#535FFD"/>
<path d="M48.1051 9.10139C49.1851 9.10139 50.0457 9.45277 50.6869 10.1555C51.3282 10.8583 51.6488 11.8455 51.6488 13.1171V18.5049H49.2863V13.3849C49.2863 12.6486 49.0951 12.0797 48.7126 11.6782C48.3301 11.2654 47.807 11.0591 47.1432 11.0591C46.4683 11.0591 45.9283 11.2766 45.5233 11.7116C45.1183 12.1467 44.9158 12.7713 44.9158 13.5856V18.5049H42.5364V9.23525H44.9158V11.0925C45.1633 10.4679 45.5683 9.98263 46.1308 9.63683C46.7045 9.27987 47.3626 9.10139 48.1051 9.10139Z" fill="#535FFD"/>
<path d="M59.311 9.10139C60.391 9.10139 61.2516 9.45277 61.8928 10.1555C62.5341 10.8583 62.8547 11.8455 62.8547 13.1171V18.5049H60.4922V13.3849C60.4922 12.6486 60.301 12.0797 59.9185 11.6782C59.536 11.2654 59.0129 11.0591 58.3491 11.0591C57.6741 11.0591 57.1342 11.2766 56.7292 11.7116C56.3242 12.1467 56.1217 12.7713 56.1217 13.5856V18.5049H53.7423V9.23525H56.1217V11.0925C56.3692 10.4679 56.7742 9.98263 57.3367 9.63683C57.9104 9.27987 58.5685 9.10139 59.311 9.10139Z" fill="#535FFD"/>
<path d="M68.61 9.11812C69.3975 9.11812 70.0669 9.30218 70.6181 9.67029C71.1806 10.0384 71.5856 10.5348 71.8331 11.1595V6.12305H74.1956V18.5049H71.8331V16.564C71.5856 17.1887 71.1806 17.6906 70.6181 18.0699C70.0669 18.438 69.3975 18.6221 68.61 18.6221C67.8226 18.6221 67.1138 18.4324 66.4838 18.0532C65.8538 17.6739 65.3588 17.1273 64.9988 16.4134C64.6501 15.6883 64.4757 14.8406 64.4757 13.8701C64.4757 12.8996 64.6501 12.0574 64.9988 11.3435C65.3588 10.6185 65.8538 10.0663 66.4838 9.68702C67.1138 9.30776 67.8226 9.11812 68.61 9.11812ZM69.3525 11.1762C68.61 11.1762 68.0138 11.416 67.5638 11.8957C67.1138 12.3753 66.8888 13.0335 66.8888 13.8701C66.8888 14.7067 67.1138 15.3648 67.5638 15.8445C68.0138 16.313 68.61 16.5473 69.3525 16.5473C70.0725 16.5473 70.6631 16.3074 71.1244 15.8278C71.5969 15.337 71.8331 14.6844 71.8331 13.8701C71.8331 13.0446 71.5969 12.3921 71.1244 11.9124C70.6631 11.4216 70.0725 11.1762 69.3525 11.1762Z" fill="#535FFD"/>
<path d="M78.7312 6.12305V18.5049H76.3519V6.12305H78.7312Z" fill="#535FFD"/>
<path d="M89.6754 13.5187C89.6754 13.753 89.6473 14.0207 89.591 14.3219H82.7399C82.7736 15.1473 82.9986 15.7553 83.4149 16.1457C83.8311 16.5361 84.3486 16.7313 84.9674 16.7313C85.5186 16.7313 85.9742 16.5975 86.3342 16.3297C86.7055 16.062 86.9417 15.6995 87.043 15.2421H89.5573C89.4335 15.8891 89.1692 16.4692 88.7642 16.9823C88.3592 17.4954 87.8361 17.897 87.1948 18.187C86.5648 18.477 85.8617 18.6221 85.0855 18.6221C84.1742 18.6221 83.3643 18.4324 82.6555 18.0532C81.9468 17.6627 81.3955 17.1106 81.0018 16.3967C80.608 15.6828 80.4112 14.8406 80.4112 13.8701C80.4112 12.8996 80.608 12.0574 81.0018 11.3435C81.3955 10.6185 81.9468 10.0663 82.6555 9.68702C83.3643 9.30776 84.1742 9.11812 85.0855 9.11812C86.008 9.11812 86.8123 9.30776 87.4986 9.68702C88.1961 10.0663 88.7304 10.5906 89.1017 11.2599C89.4842 11.918 89.6754 12.6709 89.6754 13.5187ZM87.2792 13.2845C87.313 12.5259 87.1105 11.9515 86.6717 11.561C86.2442 11.1706 85.7155 10.9754 85.0855 10.9754C84.4442 10.9754 83.9043 11.1706 83.4655 11.561C83.0268 11.9515 82.7849 12.5259 82.7399 13.2845H87.2792Z" fill="#535FFD"/>
<path d="M93.3388 16.0453V18.5049H90.7739V16.0453H93.3388Z" fill="#535FFD"/>
</svg>
