<svg width="48" height="48" viewBox="0 0 48 48" fill="none" xmlns="http://www.w3.org/2000/svg">
<rect width="48" height="48" rx="10" fill="#1DA1F2"/>
<path d="M39.3332 16.0169C38.2598 16.4795 37.1213 16.7831 35.9555 16.9174C37.1834 16.2025 38.1023 15.0775 38.541 13.7522C37.3867 14.4189 36.1237 14.8884 34.8066 15.1403C34.2563 14.5692 33.5914 14.1142 32.853 13.8034C32.1146 13.4926 31.3184 13.3327 30.5139 13.3335C27.2661 13.3335 24.6326 15.8952 24.6326 19.0559C24.6326 19.504 24.6847 19.9412 24.7852 20.3603C19.8972 20.1216 15.5638 17.8432 12.663 14.3807C12.14 15.254 11.8652 16.2471 11.8667 17.2579C11.866 18.2 12.1044 19.1278 12.5608 19.9587C13.0173 20.7896 13.6776 21.4979 14.4831 22.0208C13.5493 21.9919 12.6361 21.7465 11.8195 21.305C11.8187 21.3289 11.8187 21.3525 11.8187 21.3771C11.8187 24.1488 13.8458 26.4617 16.5359 26.988C15.6697 27.2161 14.7615 27.2496 13.88 27.0858C14.6283 29.3587 16.8002 31.0138 19.3738 31.0601C17.2905 32.6509 14.7178 33.5137 12.0696 33.5098C11.595 33.5098 11.127 33.483 10.6665 33.4298C13.3556 35.111 16.4853 36.0033 19.6816 36.0002C30.4993 36.0002 36.4149 27.281 36.4149 19.7199C36.4149 19.4721 36.4089 19.2247 36.3977 18.9788C37.5498 18.1695 38.5439 17.1665 39.3332 16.0169Z" fill="white"/>
</svg>
